<?xml version="1.0" encoding="utf-8"?>
<!-- Svg Vector Icons : http://www.onlinewebfonts.com/icon -->
<!DOCTYPE svg PUBLIC "-//W3C//DTD SVG 1.1//EN" "http://www.w3.org/Graphics/SVG/1.1/DTD/svg11.dtd">
<svg version="1.1" xmlns="http://www.w3.org/2000/svg" xmlns:xlink="http://www.w3.org/1999/xlink" x="0px" y="0px" viewBox="0 0 1000 1000" enable-background="new 0 0 1000 1000" xml:space="preserve">
<metadata> Svg Vector Icons : http://www.onlinewebfonts.com/icon </metadata>
<g><path d="M500,990c270.1,0,490-219.8,490-490c0-270.2-219.9-490-490-490C229.8,10,10,229.8,10,500C10,770.1,229.8,990,500,990 M500,57.4c244,0,442.6,198.5,442.6,442.6c0,244.1-198.6,442.6-442.6,442.6C255.9,942.6,57.4,744.1,57.4,500C57.4,255.9,255.9,57.4,500,57.4 M496.1,323.3c-14.3,0-25.8-11.5-25.8-25.9c0-14.2,11.5-25.8,25.8-25.8c14.3,0,25.9,11.5,25.9,25.8C522,311.7,510.4,323.3,496.1,323.3 M496.1,399.2c13.1,0,23.7,10.6,23.7,23.6v288.4c0,13-10.6,23.7-23.7,23.7c-13,0-23.6-10.7-23.6-23.7V422.9C472.5,409.8,483.1,399.2,496.1,399.2"/></g>
</svg>