<?xml version="1.0" encoding="utf-8"?>
<!-- Svg Vector Icons : http://www.onlinewebfonts.com/icon -->
<!DOCTYPE svg PUBLIC "-//W3C//DTD SVG 1.1//EN" "http://www.w3.org/Graphics/SVG/1.1/DTD/svg11.dtd">
<svg version="1.1" xmlns="http://www.w3.org/2000/svg" xmlns:xlink="http://www.w3.org/1999/xlink" x="0px" y="0px" viewBox="0 0 1000 1000" enable-background="new 0 0 1000 1000" xml:space="preserve">
<metadata> Svg Vector Icons : http://www.onlinewebfonts.com/icon </metadata>
<g><path d="M959.4,928.8h-91.9v-245h91.9c16.9,0,30.6,13.7,30.6,30.6v183.8C990,915,976.3,928.8,959.4,928.8z M959.4,622.5h-91.9v-245h91.9c16.9,0,30.6,13.7,30.6,30.6v183.8C990,608.8,976.3,622.5,959.4,622.5z M959.4,316.3h-91.9v-245h91.9c16.9,0,30.6,13.7,30.6,30.6v183.8C990,302.5,976.3,316.3,959.4,316.3z M775.6,990h-735C23.7,990,10,976.3,10,959.4V40.6C10,23.7,23.7,10,40.6,10h735c16.9,0,30.6,13.7,30.6,30.6v918.8C806.3,976.3,792.5,990,775.6,990z M591.9,691.5c0,0-36.9-56.5-121.9-69c0,0-16.5-30-3.8-72.8c55.8-22.9,95.1-77.6,95.1-141.6c0-84.6-68.6-153.1-153.1-153.1S255,323.6,255,408.1c0,44.8,19.2,85.1,49.9,113.1c12.4,11.3,26.8,20.3,42.4,27.1c5.8,28.7,8.1,62.6-9.4,75.3c0,0-79.9,2.7-113.7,64.9v55.6h367.7V691.5z"/></g>
</svg>